<svg
  xmlns="http://www.w3.org/2000/svg"
  xmlns:xlink="http://www.w3.org/1999/xlink"
  width="24"
  height="24"
>
  <defs>
    <g id="linkedin">
      <path
        d="M329,145h-432c-22.1,0-40,17.9-40,40v432c0,22.1,17.9,40,40,40h432c22.1,0,40-17.9,40-40V185C369,162.9,351.1,145,329,145z M41.4,508.1H-8.5V348.4h49.9V508.1z M15.1,328.4h-0.4c-18.1,0-29.8-12.2-29.8-27.7c0-15.8,12.1-27.7,30.5-27.7 c18.4,0,29.7,11.9,30.1,27.7C45.6,316.1,33.9,328.4,15.1,328.4z M241,508.1h-56.6v-82.6c0-21.6-8.8-36.4-28.3-36.4 c-14.9,0-23.2,10-27,19.6c-1.4,3.4-1.2,8.2-1.2,13.1v86.3H71.8c0,0,0.7-146.4,0-159.7h56.1v25.1c3.3-11,21.2-26.6,49.8-26.6 c35.5,0,63.3,23,63.3,72.4V508.1z"
      />
    </g>
    <g id="instagram">
      <path
        fill-rule="evenodd"
        clip-rule="evenodd"
        d="M2 6C2 3.79086 3.79086 2 6 2H18C20.2091 2 22 3.79086 22 6V18C22 20.2091 20.2091 22 18 22H6C3.79086 22 2 20.2091 2 18V6ZM6 4C4.89543 4 4 4.89543 4 6V18C4 19.1046 4.89543 20 6 20H18C19.1046 20 20 19.1046 20 18V6C20 4.89543 19.1046 4 18 4H6ZM12 9C10.3431 9 9 10.3431 9 12C9 13.6569 10.3431 15 12 15C13.6569 15 15 13.6569 15 12C15 10.3431 13.6569 9 12 9ZM7 12C7 9.23858 9.23858 7 12 7C14.7614 7 17 9.23858 17 12C17 14.7614 14.7614 17 12 17C9.23858 17 7 14.7614 7 12ZM17.5 8C18.3284 8 19 7.32843 19 6.5C19 5.67157 18.3284 5 17.5 5C16.6716 5 16 5.67157 16 6.5C16 7.32843 16.6716 8 17.5 8Z"
      />
    </g>
  </defs>

  <use xlink:href="#linkedin" />
  <use xlink:href="#instagram" />
</svg>
